<svg xmlns="http://www.w3.org/2000/svg" width="239" height="158.2" viewBox="0 0 239 158.2"><g transform="translate(1.02 0)"><g transform="translate(-1.02 0.43)"><path d="M459.676.43a79.934,79.934,0,0,1,67.588,36.913H516.007a71.043,71.043,0,0,0-112.664,0H392.087A79.932,79.932,0,0,1,459.676.43ZM532.04,112.181a80.228,80.228,0,0,1-144.73,0h10.381a70.946,70.946,0,0,0,123.968,0Z" transform="translate(-335.936 -0.43)" fill="#fff" stroke="#fff" stroke-miterlimit="22.926" stroke-width="0.86" fill-rule="evenodd"/><rect width="174.785" height="2.106" transform="translate(37.895 38.102)" fill="#fff"/><path d="M285.42,817.7h83.419l0,.034a18.989,18.989,0,0,0-.111,1.95v.122h-83.3V817.7Zm92.221,0H460.2v2.106H377.967c-.07-.575-.183-1.322-.242-1.66S377.67,817.846,377.641,817.7Z" transform="translate(-247.525 -709.579)" fill="#fff" fill-rule="evenodd"/><path d="M860.231,799.4c.331-.131.427-.667.47-1.177a7.552,7.552,0,0,0-.028-1.541c-.062-.548-.177-1.162-.24-1.711a12.372,12.372,0,0,1-.063-1.6,18.586,18.586,0,0,1,.111-1.95,4.372,4.372,0,0,1,.8-2.27,4.656,4.656,0,0,1,2.584-1.721,2.832,2.832,0,0,1,2.7.927,7.151,7.151,0,0,1,1.312,3.475,47.318,47.318,0,0,1,.531,4.86,35.508,35.508,0,0,0,.38,4.179c.233,1.185.655,2.15,1.254,2.293s1.38-.537,2.2-1.528a12.242,12.242,0,0,1,2.585-2.8,1.77,1.77,0,0,1,2.453.718,4.575,4.575,0,0,1,.04,4.318,21.377,21.377,0,0,1-4.169,5.546c-1.515,1.536-2.691,2.451-3.269,3.655a9.448,9.448,0,0,0-.544,4.126c.017,1.43.033,2.8-.033,3.889a3.25,3.25,0,0,1-.886,2.5,4.526,4.526,0,0,1-2.883.876,2.487,2.487,0,0,1-2.256-1.349,10.783,10.783,0,0,1-.734-3.43c-.136-1.185-.271-2.2-.381-3.145a17.748,17.748,0,0,0-.52-3,13.343,13.343,0,0,0-1.593-3.686,9.378,9.378,0,0,0-2.332-2.179c-.818-.631-1.636-1.357-2.267-1.935s-1.078-1.007-1.519-1.476a14.989,14.989,0,0,1-1.263-1.517,9.092,9.092,0,0,1-.99-1.725,6.028,6.028,0,0,1-.507-1.978,4.82,4.82,0,0,1,.349-2.072,6.208,6.208,0,0,1,1.274-2.036,2.285,2.285,0,0,1,2.1-.829,4.636,4.636,0,0,1,2.551,1.793c.673.906,1,1.994,1.443,2.674s1.012.956,1.344.826Z" transform="translate(-738.425 -683.26)" fill="#00913d" fill-rule="evenodd"/><text transform="translate(0 75.874)" font-size="46" font-family="Berlin Sans FB" font-weight="500"><tspan x="0" y="0">ARRETADA</tspan></text><text transform="translate(89.457 90.395)" fill="#00913d" font-size="14" font-family="Roboto" font-weight="300"><tspan x="0" y="0">CERVEJARIA</tspan></text></g></g></svg>